# xmcd
#
# Track frame offsets:
#	200
#	73810
#	111715
#	158425
#
# Disc length: 2944 seconds
#
# Revision: 0
# Processed by: cddbd v1.4PL0 Copyright (c) Steve Scherf et al.
# Submitted via: dBpowerAMP V4.0
#
DISCID=330b7e04
DTITLE=Los Flamers - Gran Reventon 96
DYEAR=1900
DGENRE=Undefined
TTITLE0=Reventon Grupero
TTITLE1=Reventon de los tigrazos
TTITLE2=Reventon de los galanazos
TTITLE3=Reventon de las nenorras
EXTD=Los Flamers - Names of songs of this album
EXTT0=
EXTT1=
EXTT2=
EXTT3=
PLAYORDER=
